<svg xmlns="http://www.w3.org/2000/svg" xmlns:xlink="http://www.w3.org/1999/xlink" viewBox="0 0 334.55 392.6"><defs><style>.cls-1{fill:url(#linear-gradient);}.cls-2{fill:url(#linear-gradient-2);}</style><linearGradient id="linear-gradient" x1="26.83" y1="262.69" x2="280.88" y2="262.69" gradientUnits="userSpaceOnUse"><stop offset="0" stop-color="#f8ed50"/><stop offset="0" stop-color="#231f20"/></linearGradient><linearGradient id="linear-gradient-2" x1="0" y1="101.67" x2="334.55" y2="101.67" xlink:href="#linear-gradient"/></defs><title>bg</title><g id="Layer_1" data-name="Layer 1"><polygon class="cls-1" points="156.63 382.1 254.71 311.45 280.88 211.66 165.66 132.78 165.21 134.49 164.7 133.47 112.36 333.04 57.74 291.45 71.67 251.39 134.29 212.2 151.08 143.28 53 213.93 26.83 313.71 142.05 392.6 142.5 390.88 143.01 391.91 195.35 192.34 249.97 233.93 236.04 273.99 173.42 313.18 156.63 382.1"/><polygon class="cls-2" points="240.24 133.45 167.27 0 94.3 133.45 0 99.87 44.91 203.34 144.45 138.56 144.45 107.07 167.27 123.26 190.1 107.07 190.1 138.56 289.64 203.34 334.55 99.87 240.24 133.45"/></g></svg>